<?xml version="1.0" standalone="no"?>
<!DOCTYPE svg PUBLIC "-//W3C//DTD SVG 1.1//EN" "http://www.w3.org/Graphics/SVG/1.1/DTD/svg11.dtd">
<svg xmlns="http://www.w3.org/2000/svg">
<metadata>Copyright (C) 2024 by original authors @ fontello.com</metadata>
<defs>
<font id="jws_icon" horiz-adv-x="1000" >
<font-face font-family="jws_icon" font-weight="400" font-stretch="normal" units-per-em="1000" ascent="850" descent="-150" />
<missing-glyph horiz-adv-x="1000" />
<glyph glyph-name="heart-1" unicode="&#xe800;" d="M500-25c-6 0-12 0-12 6-19 6-407 232-407 513 0 56 19 106 50 150 32 44 82 69 138 81 50 6 106 0 156-25 25-19 56-44 75-69 19 25 50 50 75 69 50 25 106 31 156 19 50-13 100-38 138-81 31-44 50-94 50-150 0-282-388-501-406-513 0 0-7 0-13 0z m-187 688c-13 0-25 0-32-7-43-6-75-25-100-56s-37-69-37-112c0-213 287-407 362-450 69 43 357 231 357 450 0 37-13 81-38 106-25 31-62 50-100 62-37 7-81 0-112-18-38-19-63-50-75-88-13-25-50-25-57 0-25 44-50 75-87 94-25 12-56 19-81 19z" horiz-adv-x="1000" />

<glyph glyph-name="shieldcheck" unicode="&#xe801;" d="M500-88c-8 0-12 0-21 5-58 20-354 137-354 483v233c0 17 8 34 17 46s29 17 46 17h625c16 0 33-8 45-17 9-16 17-33 17-46v-229c0-350-296-467-354-483-8-4-13-9-21-9z m-312 721v-229c0-308 262-408 312-425 50 17 313 121 313 425v229h-625z m275-429l229 221c12 13 12 33 0 46-13 12-34 12-46 0l-208-200-92 87c-13 13-33 13-46 0-12-12-12-33 0-45l117-109c4-4 12-8 21-8s20 0 25 8z" horiz-adv-x="1000" />

<glyph glyph-name="share" unicode="&#xe802;" d="M596 515c19 12 23 35 12 54-12 20-35 23-54 12l42-66z m-250-69c-19-11-23-34-11-54 11-19 34-23 54-11l-43 65z m43-127c-20 12-43 8-54-11-12-19-8-43 11-54l43 65z m165-200c19-11 42-7 54 12 11 19 7 42-12 54l-42-66z m-208 231c0-42-34-77-77-77v-77c85 0 154 69 154 154h-77z m-77-77c-42 0-77 35-77 77h-77c0-85 70-154 154-154v77z m-77 77c0 42 35 77 77 77v77c-84 0-154-69-154-154h77z m77 77c43 0 77-35 77-77h77c0 85-69 154-154 154v-77z m481-338c0-43-35-77-77-77v-77c85 0 154 69 154 154h-77z m-77-77c-42 0-77 34-77 77h-77c0-85 70-154 154-154v77z m-77 77c0 42 35 76 77 76v77c-84 0-154-69-154-153h77z m77 76c42 0 77-34 77-76h77c0 84-69 153-154 153v-77z m77 447c0-43-35-77-77-77v-77c85 0 154 69 154 154h-77z m-77-77c-42 0-77 34-77 77h-77c0-85 70-154 154-154v77z m-77 77c0 42 35 77 77 77v76c-84 0-154-69-154-153h77z m77 77c42 0 77-35 77-77h77c0 84-69 153-154 153v-76z m-119-108l-208-135 43-65 211 134-46 66z m-208-327l212-135 42 66-211 134-43-65z" horiz-adv-x="1000" />

<glyph glyph-name="houseline" unicode="&#xe803;" d="M154-38c-25 0-41 17-41 42v392c0 8 0 25 12 37 4 5 4 9 13 17l308 288c25 25 75 25 100 0l312-284c5-4 13-12 17-25 8-12 8-25 8-33v-392c0-25-16-42-41-42s-42 17-42 42v388c0 0 0 0 0 0l-304 275-296-275c0 0 0-4-4-4v-384c0-25-17-42-42-42z m654 421c0 0 0 0 0 0 0 0 0 0 0 0z m-12 30c0 0 0 0 0 0 0 0 0 0 0 0z m-667 25c0 0 0 0 0 0 0 0 0 0 0 0z m359 241c0 0 0-4 0 0l0 0z m16 0l0 0c0 0 0 0 0 0z m434-712h-875c-25 0-42 16-42 41s17 42 42 42h875c25 0 41-17 41-42s-16-41-41-41z m-530-5c-25 0-41 17-41 42v221c0 17 8 38 21 50 12 13 33 21 50 21h125c16 0 37-8 50-21 12-12 20-33 20-50v-217c0-25-16-41-41-41s-42 16-42 41v205h-100v-209c0-25-17-42-42-42z" horiz-adv-x="1000" />

<glyph glyph-name="list" unicode="&#xe804;" d="M844 319h-688c-18 0-31 12-31 31s13 31 31 31h688c19 0 31-12 31-31s-12-31-31-31z m31 281c0 19-12 31-31 31h-688c-18 0-31-12-31-31s13-31 31-31h688c19 0 31 12 31 31z m0-500c0 19-12 31-31 31h-688c-18 0-31-12-31-31s13-31 31-31h688c19 0 31 12 31 31z" horiz-adv-x="1000" />

<glyph glyph-name="arrow-left-2" unicode="&#xe805;" d="M625-25c-19 0-31 6-44 19l-312 312c-25 25-25 63 0 88l312 312c25 25 63 25 88 0s25-62 0-87l-269-269 269-269c25-25 25-62 0-87-13-13-25-19-44-19z" horiz-adv-x="1000" />

<glyph glyph-name="check-circle-fill" unicode="&#xe806;" d="M500 756a406 406 0 1 1 406-406 407 407 0 0 1-406 406z m193-335l-228-219a32 32 0 0 0-22-8 30 30 0 0 0-22 8l-114 110a31 31 0 1 0 43 45l93-89 207 198a31 31 0 0 0 43-45z" horiz-adv-x="1000" />

<glyph glyph-name="text-quotes-svgrepo-com-1" unicode="&#xe807;" d="M774 671c-127 0-228-103-228-231 0-128 105-231 232-231 2 0 4 0 5 0-51-40-114-64-183-64-32 0-58-26-58-58 0-32 20-58 52-58 227 0 406 184 406 411 0 0 0 0 0 0 0 128-98 231-226 231z m-541 0c-128 0-229-103-229-231 0-128 105-231 233-231 1 0 3 0 4 0-50-40-114-64-183-64-32 0-58-26-58-58 0-32 21-58 53-58 226 0 406 184 406 411 0 0 0 0 0 0 0 128-99 231-226 231z" horiz-adv-x="1000" />

<glyph glyph-name="suitcasesimple-1" unicode="&#xe808;" d="M842-25h-684c-33 0-62 29-62 63v500c-4 33 25 62 62 62h688c33 0 62-29 62-62v-500c0-34-29-63-66-63z m-684 563v-500h688v500h-688z m500 0c-16 0-33 12-33 33v62c0 9-4 17-8 21-4 4-13 9-21 9h-188c-8 0-16-5-20-9s-13-12-13-21v-62c0-17-12-33-33-33s-29 12-29 29v66c0 25 8 50 29 67 16 17 37 25 66 25h188c25 0 50-8 67-29 16-17 29-42 29-67v-62c-4-17-17-29-34-29z m217-346h-750c-17 0-33 12-33 33s12 33 33 33h750c17 0 33-12 33-33s-16-33-33-33z" horiz-adv-x="1000" />

<glyph glyph-name="usercircle" unicode="&#xe809;" d="M500-58c-225 0-408 183-408 408s183 408 408 408 408-183 408-408-183-408-408-408z m0 750c-187 0-342-154-342-342s155-342 342-342 342 155 342 342-154 342-342 342z m0-500c-104 0-187 83-187 187s83 188 187 188 188-84 188-188-84-187-188-187z m0 316c-71 0-125-54-125-125s54-125 125-125 125 55 125 125-54 125-125 125z m-250-466c-4 0-8 0-12 4-17 8-21 25-13 42 25 50 67 95 117 125 100 58 229 58 325 0 50-30 87-75 116-125 9-17 0-34-12-42-17-8-33 0-42 12-21 42-54 75-91 100-80 50-184 50-263 0-46-25-75-58-100-100-4-12-12-16-25-16z" horiz-adv-x="1000" />

<glyph glyph-name="arrow-right-2" unicode="&#xe80a;" d="M375-25c-19 0-31 6-44 19-25 25-25 62 0 87l269 269-269 269c-25 25-25 62 0 87s63 25 88 0l312-312c25-25 25-63 0-88l-312-312c-13-13-25-19-44-19z" horiz-adv-x="1000" />

<glyph glyph-name="checkfree" unicode="&#xe80b;" d="M525-88l-425 413 175 175 225-212 400 512 200-150-575-738z" horiz-adv-x="1125" />

<glyph glyph-name="tag" unicode="&#xe80c;" d="M496-117c-8 0-21 0-29 4-9 5-17 9-21 17l-375 409c-8 8-13 16-17 29-4 12-4 21 0 33l59 317c0 16 12 33 29 33l287 63c13 4 25 0 38 0 12-5 21-9 29-21l375-409c8-8 12-16 12-25 5-8 5-16 5-25 0-8 0-16-5-25-4-8-8-16-12-25l-325-354c-4-8-13-12-21-17-12 0-21-4-29-4z m-13 79c0 0 0 0 0 0l0 0z m21 0l0 0 0 0z m-371 405l359-392 308 338-362 395-250-58-55-283z m317 341c0 0 0 0 0 0 0 0 0 0 0 0z m-12 42l0 0 0 0z m-138-275c25 0 42 21 42 46s-21 46-42 46c-25 0-42-21-42-46s17-46 42-46z" horiz-adv-x="917" />

<glyph glyph-name="pencil" unicode="&#xe80d;" d="M363-25h-175c-17 0-34 8-42 17-13 8-21 25-21 41v175c0 5 0 17 8 25 5 9 13 17 21 21l459 471c20 21 62 21 87 0l175-175c13-12 17-29 17-42 0-16-9-33-17-41l-471-471c0 0-4-4-4-4-4-5-12-13-21-13 0-4-8-4-16-4z m12 0c0 0 0 0 0 0 0 0 0 0 0 0z m33 33c0 0 0 0 0 0 0 0 0 0 0 0z m-220 196v-171l166 0c0 0 4 5 4 5l471 470-175 175-466-479c4 0 4 0 0 0z m-17-8c0 0 0 0 0 0 0 0 0 0 0 0z m21 25c0 0 0 0 0 0 0 0 0 0 0 0z m558 129c-8 0-17 4-21 8l-216 217c-13 13-13 33 0 46s33 12 45 0l217-217c13-12 13-33 0-46-8-4-17-8-25-8z m-375-375c-8 0-17 4-21 8l-216 217c-13 13-13 33 0 46s33 12 45 0l217-217c13-12 13-33 0-46-8-4-17-8-25-8z" horiz-adv-x="1000" />

<glyph glyph-name="star" unicode="&#xe80e;" d="M542 88l229 58 96-292-325 234z m525 383h-400l-125 379-125-379h-400l325-233-125-380 325 234 200 146 325 233z" horiz-adv-x="1083" />

<glyph glyph-name="atom" unicode="&#xe80f;" d="M707-17c-34 0-74 7-127 34-87 33-180 100-260 186s-153 174-193 260c-60 134-27 200 0 227 26 27 93 60 226 0 87-40 180-107 260-193 167-167 280-387 187-480-13-20-47-34-93-34z m-480 634c-14 0-20 0-27-7-7-7-7-40 20-107 33-73 93-153 167-226 73-74 160-134 226-167 67-27 100-27 114-20 20 20-14 167-187 340-73 73-153 133-227 167-40 20-66 20-86 20z m0-634c-47 0-80 20-94 34-26 26-60 93 0 226 40 80 107 174 187 260 167 160 380 280 480 180 100-100-20-320-187-480l0 0 0 0c-80-86-173-153-260-193-53-20-93-27-126-27z m480 640c-54 0-174-53-320-193-74-73-134-160-167-227-27-66-27-100-20-113 7-7 47-13 113 20 74 27 154 87 234 160l0 0c173 173 206 320 186 340-6 7-13 13-26 13z m-240-306c20 0 33 13 33 33s-13 33-33 33-34-13-34-33 14-33 34-33z" horiz-adv-x="933" />

<glyph glyph-name="clipboard" unicode="&#xe810;" d="M727-50h-520c-20 0-40 7-54 20-13 13-20 33-20 53v620c0 20 7 40 20 54s34 20 54 20h146c27 6 47-20 47-47s-20-47-53-47h-120v-573h480v573h-120c-34 0-54 20-54 47s20 53 54 53h146c20 0 40-6 54-20 13-13 20-33 20-53v-613c0-20-7-40-20-54-14-26-34-33-60-33z m0 673l0 0 0 0z m-114-120h-293c-27 0-53 20-53 54v26c0 54 20 100 60 140 73 74 200 74 280 0 33-40 53-86 53-140v-26c0-34-20-54-47-54z m-240 100h187c-7 20-13 34-27 47-33 40-100 40-133 0-13-13-20-27-27-47z" horiz-adv-x="933" />

<glyph glyph-name="clock" unicode="&#xe811;" d="M467-50c-220 0-400 180-400 400s180 400 400 400 400-180 400-400-180-400-400-400z m0 700c-167 0-300-133-300-300s133-300 300-300 300 133 300 300-134 300-300 300z m253-300c0 27-20 53-53 53h-147v154c0 26-27 46-53 46s-54-20-54-46v-207c0-27 20-53 54-53h206c27 6 47 26 47 53z" horiz-adv-x="933" />

<glyph glyph-name="caret-down" unicode="&#xe812;" d="M500 100c-19 0-31 6-44 19l-312 312c-25 25-25 63 0 88s62 25 87 0l269-269 269 269c25 25 62 25 87 0s25-63 0-88l-312-312c-13-13-25-19-44-19z" horiz-adv-x="1000" />

<glyph glyph-name="envelopeopen" unicode="&#xe813;" d="M842-4h-688c-16 0-37 8-50 21-12 12-21 33-21 50v408c0 13 9 25 17 33l371 250c12 9 33 9 46 0l375-250c12-8 16-20 16-33v-408c0-17-8-38-20-50-9-13-30-21-46-21z m-675 83h662v375l-333 221-329-221v-375z m-29-71c-13 0-25 5-34 17-12 21-8 46 9 58l295 209c21 12 46 8 59-9 12-20 8-45-9-58l-295-208c-9-4-17-9-25-9z m729-4c-9 0-17 4-25 9l-296 208c-21 12-25 37-8 58 12 21 37 25 58 9l296-209c21-12 25-37 8-58-8-13-21-17-33-17z m-300 213h-138c-8 0-16 4-25 8l-304 217c-17 12-21 37-8 58 12 17 37 21 58 8l292-208h112l296 208c21 13 46 9 58-8 13-21 9-46-8-58l-308-217c-9-4-17-8-25-8z" horiz-adv-x="1000" />

<glyph glyph-name="cross" unicode="&#xe814;" d="M535 325l283 282c9 10 9 26 0 36s-26 9-36 0l-282-283-282 283c-10 9-26 9-36 0s-9-26 0-36l283-282-283-282c-9-10-9-26 0-36 5-5 12-7 18-7s13 3 18 7l282 283 282-283c5-5 12-7 18-7s13 3 18 7c10 10 10 26 0 36l-283 282z" horiz-adv-x="1000" />

<glyph glyph-name="heart" unicode="&#xe815;" d="M500 6c0 0-391 219-391 485 0 47 17 92 46 128 30 37 72 62 118 71 46 9 94 2 135-20 41-22 74-58 92-101l0 0c18 43 51 79 92 101 42 22 89 29 135 20 46-9 88-34 118-71 29-36 46-81 46-128 0-266-391-485-391-485z" horiz-adv-x="1000" />

<glyph glyph-name="filetext" unicode="&#xe816;" d="M783-58h-566c-17 0-34 8-42 16-12 13-17 25-17 42v692c0 16 9 33 17 41 8 9 25 21 42 21h375c8 0 16-4 21-8l216-217c4-4 9-12 9-21v-500c0-4 0-16-9-25-4-8-8-16-21-21 0-12-12-20-25-20z m38 37c0 0 0 0 0 0 0 0 0 0 0 0z m-50 17c0 0 0 0 0 0 0 0 0 0 0 0z m-550 696c0 0 0 0 0 0l-4-688 550 0c0 0 4 4 4 4 0 0 0 0 4 0v488l-200 200h-354z m562-684c0 0 0 0 0 0l0 0z m-558 688l0 0 0 0z m588-221h-221c-17 0-34 13-34 33v217c0 17 13 33 34 33s33-16 33-33v-187h188c16 0 33-13 33-34s-17-29-33-29z m-188-187h-250c-17 0-33 12-33 33s16 29 33 29h250c17 0 33-12 33-33s-16-29-33-29z m0-125h-250c-17 0-33 12-33 33s16 29 33 29h250c17 0 33-12 33-33s-16-29-33-29z" horiz-adv-x="1000" />

<glyph glyph-name="usercircleplus" unicode="&#xe817;" d="M500 192c-104 0-187 83-187 187s83 188 187 188 188-84 188-188-84-187-188-187z m0 316c-71 0-125-54-125-125s54-125 125-125 125 55 125 125-54 125-125 125z m-250-466c-4 0-8 0-12 4-17 8-21 25-13 42 25 50 67 95 117 125 100 58 229 58 325 0 50-30 87-75 116-125 9-17 0-34-12-42-17-8-33 0-42 12-21 42-54 75-91 100-80 50-184 50-263 0-46-25-75-58-100-100-4-12-12-16-25-16z m625 558h-187c-17 0-34 13-34 33s13 34 34 34h187c17 0 33-13 33-34s-16-33-33-33z m-92-92c-16 0-33 13-33 34v183c0 17 13 33 33 33s34-12 34-33v-187c-4-17-17-30-34-30z m-283-562c-21 0-42 0-62 4-84 12-163 54-225 113-63 62-100 137-113 225s0 170 38 245c37 75 100 138 179 180 75 37 162 54 246 37 16-4 29-17 25-37-5-17-21-30-38-25-71 12-146 0-208-34-67-33-117-83-150-150-34-66-46-137-34-208 13-71 46-138 96-188 50-50 117-83 188-95 71-13 146 0 208 33 67 33 117 83 150 150 33 67 46 137 33 208-4 17 9 34 25 38 17 4 34-9 38-25 12-84 0-171-38-246-37-75-100-138-179-179-50-34-112-46-179-46z" horiz-adv-x="1000" />

<glyph glyph-name="chats" unicode="&#xe818;" d="M125 133c-4 0-8 0-12 5-13 4-17 16-17 29v500c0 16 8 33 17 46s29 12 45 12h500c17 0 34-8 46-17 13-12 17-29 17-45v-342c0-17-8-33-17-46-12-12-29-17-46-17h-366l-146-116c-8-9-13-9-21-9z m33 530v-434l105 84c4 4 12 8 20 8h375v342h-500z m717-721c-8 0-12 4-21 8l-146 117h-366c-17 0-34 8-46 16-13 13-17 30-17 46v159c0 16 13 33 34 33s33-13 33-33v-159h375c8 0 12-4 21-8l104-83v437h-158c-17 0-34 13-34 33s13 34 34 34h158c17 0 33-9 46-17 12-12 16-29 16-46v-500c0-12-8-25-16-29-9-4-13-8-17-8z" horiz-adv-x="1000" />

<glyph glyph-name="eyeslash" unicode="&#xe819;" d="M813-38c-13 0-25 7-38 13l-625 688c-12 18-12 50 6 68 19 13 50 13 69-6l625-687c19-19 19-51 0-69-12-7-25-7-37-7z m-313 188c-6 0-6 0-12 0-57 0-107 25-138 69-37 31-56 87-50 144 0 56 25 106 69 137 19 19 50 19 69-6 12-19 6-44-13-63-19-18-31-50-31-75 0-31 6-56 31-81 13-19 44-31 69-31 31 0 56 6 81 31 19 13 50 13 63-6 18-19 18-50-7-69-31-31-81-50-131-50z m6-125c-6 0-6 0 0 0-343 0-475 294-481 306-6 13-6 25 0 38 0 6 75 169 250 256 25 13 50 0 63-19 12-25 0-50-19-62-119-56-181-156-206-194 31-62 150-231 387-231 69 0 131 12 188 44 25 12 50 0 62-19 13-25 0-50-19-63-68-37-150-56-225-56z m307 119c-13 0-25 6-38 12-19 19-12 50 6 69 50 50 88 100 100 125-31 63-143 238-381 238-25 0-50 0-75-7-25-6-50 13-50 38-6 25 13 50 38 50 31 6 56 6 87 6 338 0 475-294 481-306 7-13 7-25 0-38 0-6-43-93-131-175-12-12-25-12-37-12z m-157 175c-25 0-43 19-43 44 0 25-13 43-25 62-25 19-44 25-69 31-25 7-38 32-38 57s32 43 57 37c43-6 81-31 112-62 31-32 50-75 50-119 6-25-12-50-44-50 0 0 0 0 0 0z" horiz-adv-x="1000" />

<glyph glyph-name="map" unicode="&#xe81a;" d="M467 270c-94 0-167 73-167 167s73 166 167 166c93 0 166-73 166-166s-73-167-166-167z m0 233c-40 0-67-26-67-66s27-67 67-67 66 27 66 67-26 66-66 66z m0-580c-14 0-20 0-27 7-13 7-313 220-313 507 0 93 33 180 100 240 66 66 153 100 240 100 86 0 180-34 240-100 66-67 100-154 100-240 0-287-300-500-314-507-6-7-13-7-26-7z m0 754c-67 0-127-27-174-74-40-40-66-100-66-166 0-187 173-347 240-400 66 60 240 220 240 406 0 67-27 127-74 174-40 40-100 60-166 60z" horiz-adv-x="933" />

<glyph glyph-name="lightning" unicode="&#xe81b;" d="M826 378c-1 4-3 9-7 12-3 4-7 7-11 8l-207 81 57 264c1 6 0 12-2 18-3 6-7 10-13 13-6 3-12 4-18 3-6-1-12-4-16-8l-410-427c-3-4-6-8-7-13-1-4-1-9 0-14 1-4 3-9 6-12 3-4 7-7 11-8l207-81-56-264c-2-6-1-12 2-18 2-6 7-10 12-13 6-3 12-4 19-3 6 1 11 4 16 8l409 428c4 3 6 7 7 12 2 4 2 9 1 14z" horiz-adv-x="1000" />

<glyph glyph-name="trash" unicode="&#xe81c;" d="M842 600h-688c-16 0-29 13-29 33s13 34 33 34h688c17 0 33-13 33-34s-16-33-37-33z m-434-437c-16 0-33 12-33 33v250c0 17 13 29 33 29s34-12 34-33v-250c-4-17-17-29-34-29z m184 0c-17 0-34 12-34 33v250c0 17 13 33 34 33s33-16 33-37v-250c0-17-12-29-33-29z m158-188h-500c-17 0-33 8-46 17-12 12-16 29-16 46v595c0 17 12 34 33 34s29-17 29-34v-591h500v591c0 17 13 34 33 34s34-13 34-34v-591c0-17-9-34-17-46s-33-21-50-21z m-92 625c-20 0-33 13-33 33v59c0 8-4 16-8 21-9 8-17 12-25 12h-184c-12 0-16-4-25-8s-8-13-8-25v-63c0-16-12-29-33-29s-29 13-29 33v59c0 25 8 50 29 66 16 17 41 30 66 30h188c25 0 50-9 67-30 16-16 29-41 29-66v-63c-4-16-17-29-34-29z" horiz-adv-x="1000" />

<glyph glyph-name="arrowcircleright" unicode="&#xe81d;" d="M500 756c-80 0-159-24-226-68-66-45-119-108-149-182-31-75-39-156-23-235 15-79 54-151 111-208 57-57 129-96 208-111 79-16 160-8 235 23 74 30 137 83 182 149 44 67 68 146 68 226 0 108-43 211-119 287-76 76-179 119-287 119z m185-418c-1-4-4-7-7-10l-132-133c-6-5-14-9-22-9-9 0-16 4-22 9-6 6-9 14-9 22 0 9 3 17 9 23l79 79h-237c-8 0-16 3-22 9-6 6-9 14-9 22 0 8 3 16 9 22 6 6 14 9 22 9h237l-79 80c-6 5-9 13-9 22 0 8 3 16 9 22 6 6 13 9 22 9 8 0 16-3 22-9l132-133c5-4 8-10 9-16 1-6 0-12-2-18v0z" horiz-adv-x="1000" />

<glyph glyph-name="caretright" unicode="&#xe81e;" d="M710 372l-313 313c-4 4-10 7-16 8-6 1-12 1-18-2-6-2-10-6-14-11-3-5-5-11-5-17v-625c0-7 2-13 5-18 4-5 8-9 14-11 6-3 12-3 18-2 6 1 12 4 16 8l313 313c3 3 5 6 6 10 2 4 3 8 3 12 0 4-1 8-3 12-1 4-3 7-6 10z" horiz-adv-x="1000" />

<glyph glyph-name="chat" unicode="&#xe81f;" d="M467-50c-67 0-127 13-187 47l-100-27c-13-7-27-7-40 0-13 7-27 13-33 20-14 7-20 20-20 33-7 14-7 27 0 40l26 100c-40 80-53 174-40 260 20 94 74 180 147 240 80 60 173 87 273 80 100-6 187-46 260-113 67-67 114-160 114-260 6-100-27-193-80-273-60-80-147-127-240-147-34 0-54 0-80 0z m-180 147c6 0 20 0 26-7 60-40 140-53 207-40 73 13 133 53 180 113 47 60 67 127 60 200-7 74-33 140-87 194-46 60-113 86-186 93-74 7-147-20-200-60-60-47-100-113-114-187-13-73 0-146 40-206 7-14 7-27 7-40l-27-87 87 27c0 0 7 0 7 0z m180 220c20 0 33 13 33 33s-13 33-33 33-34-13-34-33 14-33 34-33z m173 0c20 0 33 13 33 33s-13 33-33 33-33-13-33-33 13-33 33-33z m-347 0c20 0 34 13 34 33s-14 33-34 33-40-13-40-33 20-33 40-33z" horiz-adv-x="933" />

<glyph glyph-name="warning" unicode="&#xe820;" d="M925 116l-344 594c-8 14-20 26-34 34-14 8-30 12-47 12-16 0-33-4-47-12-14-8-26-20-34-34v0l-344-594c-8-14-12-31-12-47 0-17 4-33 12-47 8-14 20-26 35-34 14-9 30-13 46-13h688c16 0 32 4 47 13 14 8 26 20 34 34 8 14 12 30 12 47 0 16-4 33-12 47z m-456 328c0 8 3 16 9 22 6 6 14 9 22 9 8 0 16-3 22-9 6-6 9-14 9-22v-156c0-9-3-17-9-23-6-5-14-9-22-9-8 0-16 4-22 9-6 6-9 14-9 23v156z m31-344c-9 0-18 3-26 8-8 5-14 12-17 21-4 9-5 18-3 27 2 9 6 18 13 24 6 7 15 11 24 13 9 2 18 1 27-3 9-3 16-9 21-17 5-8 8-17 8-26 0-13-5-24-14-33-9-9-21-14-33-14z" horiz-adv-x="1000" />

<glyph glyph-name="state" unicode="&#xe821;" d="M409 456c-545 97-429 404-303 546l1485-152c25-323 61-973 0-985-76-15-394 0-455 243-60 242-45 227-727 348z" horiz-adv-x="1561" />

<glyph glyph-name="currencycircledollar" unicode="&#xe822;" d="M500 475c-17 0-33 13-33 33v59c0 21 16 33 33 33s33-12 33-33v-63c0-16-16-29-33-29z m0-375c-17 0-33 13-33 33v63c0 17 12 33 33 33s33-12 33-33v-63c0-20-16-33-33-33z m0-158c-225 0-408 183-408 408s183 408 408 408 408-183 408-408-183-408-408-408z m0 750c-187 0-342-154-342-342s155-342 342-342 342 155 342 342-154 342-342 342z m46-529h-138c-16 0-33 12-33 33s13 29 33 29h142c13 0 25 4 33 13s13 20 13 33c0 12-4 25-13 33-8 9-20 13-33 13h-92c-29 0-58 12-79 33-21 21-33 50-33 79s8 54 29 75 50 34 79 34h142c17 0 33-13 33-34s-16-29-37-29h-142c-12 0-25-4-33-12s-13-21-13-34 4-25 13-33c8-8 21-13 33-13h92c29 0 58-12 79-33 21-21 33-50 33-79 0-29-12-58-33-79s-46-29-75-29z" horiz-adv-x="1000" />

<glyph glyph-name="arrowsout" unicode="&#xe823;" d="M813 475c-17 0-34 13-34 33v125h-125c-16 0-33 13-33 34s12 33 33 33h159c16 0 33-12 33-33v-159c-4-20-17-33-33-33z m-221-62c-9 0-17 4-21 8-13 12-13 33 0 46l221 216c12 13 33 13 46 0s12-33 0-45l-217-217c-13-4-21-8-29-8z m-250-405h-154c-17 0-34 13-34 34v158c0 17 13 33 34 33s33-12 33-33v-125h125c17 0 33-12 33-33s-16-34-37-34z m-154 0c-9 0-17 5-21 9-13 12-13 33 0 46l216 216c13 13 34 13 46 0s13-33 0-46l-221-216c-4-9-12-9-20-9z m625 0h-159c-16 0-33 13-33 34s12 33 33 33h125v125c0 17 13 33 34 33s33-12 33-33v-158c-4-21-17-34-33-34z m0 0c-9 0-17 5-21 9l-217 216c-12 13-12 34 0 46s33 13 46 0l212-221c13-12 13-33 0-45-4-5-12-5-20-5z m-625 467c-17 0-30 13-30 33v155c0 16 13 33 34 33h158c13-4 25-17 25-33s-12-30-33-30h-125v-125c0-20-13-33-29-33z m220-62c-8 0-16 4-20 8l-221 221c-13 12-13 29 0 41s29 13 41 0l217-216c13-13 13-34 0-46-4-4-12-8-17-8z" horiz-adv-x="1000" />

<glyph glyph-name="sorting-left" unicode="&#xe824;" d="M333 58h-166c-25 0-42 17-42 42s17 42 42 42h166c25 0 42-17 42-42s-17-42-42-42z m250 250h-416c-25 0-42 17-42 42s17 42 42 42h416c25 0 42-17 42-42s-17-42-42-42z m250 250h-666c-25 0-42 17-42 42s17 42 42 42h666c25 0 42-17 42-42s-17-42-42-42z" horiz-adv-x="1000" />

<glyph glyph-name="presentationchart" unicode="&#xe825;" d="M842 100h-684c-33 0-62 29-62 63v470c0 34 29 63 62 63h688c33 0 62-29 62-63v-466c0-38-29-67-66-67z m-684 533v-466h688v466h-688z m592-691c-8 0-17 4-25 12l-125 159c-12 12-8 33 4 45 13 13 34 9 46-4l125-158c13-13 8-34-4-46-8-4-13-8-21-8z m-500 0c-8 0-12 4-21 8-12 12-16 29-4 46l125 158c13 13 29 17 46 4 12-12 17-29 4-45l-125-159c-8-8-17-12-25-12z m125 316c-17 0-33 13-33 34v91c0 17 12 34 33 34s33-13 33-34v-91c0-21-16-34-33-34z m125 0c-17 0-33 13-33 34v150c0 21 16 33 33 33s33-12 33-33v-159c0-12-16-25-33-25z m125 0c-17 0-33 13-33 34v216c0 17 12 34 33 34s33-13 33-34v-216c0-21-16-34-33-34z m-125 375c-17 0-33 13-33 34v91c0 17 12 34 33 34s33-13 33-34v-91c0-21-16-34-33-34z" horiz-adv-x="1000" />

<glyph glyph-name="briefcase" unicode="&#xe826;" d="M846-25h-688c-33 0-62 29-62 63v500c0 33 25 62 62 62h688c33 0 62-29 62-62v-500c0-34-29-63-62-63z m-688 563v-500h688v500h-688z m500 0c-16 0-33 12-33 33v62c0 9-4 17-8 21-4 4-13 9-21 9h-188c-8 0-16-5-20-9s-13-12-13-21v-62c0-17-12-33-33-33s-29 12-29 29v66c0 25 8 50 29 67 16 17 37 25 66 25h188c25 0 50-8 67-29 16-17 29-42 29-67v-62c-4-17-17-29-34-29z m-158-313c-137 0-271 38-387 104-17 9-21 29-13 42 8 17 29 21 42 12 108-62 233-95 358-95 0 0 0 0 4 0 125 0 250 33 359 95 16 9 33 5 41-12 9-17 4-33-12-42-121-66-254-104-392-104 0 0 0 0 0 0z m46 125h-92c-16 0-33 13-33 33s12 34 33 34h92c17 0 33-13 33-34s-16-33-33-33z" horiz-adv-x="1000" />

<glyph glyph-name="calendarcheck" unicode="&#xe827;" d="M813-33h-625c-42 0-75 33-75 75v625c0 41 33 75 75 75h625c41 0 75-34 75-75v-625c-5-46-34-75-75-75z m-613 83h604v600h-604v-600z m613 600l0 0 0 0z m-125-58c-25 0-42 16-42 41v125c0 25 17 42 42 42s41-17 41-42v-125c0-25-16-41-41-41z m-375 0c-25 0-42 16-42 41v125c0 25 17 42 42 42s41-17 41-42v-125c0-25-16-41-41-41z m529-125h-684c-25 0-41 16-41 41s16 42 41 42h688c25 0 42-17 42-42s-21-41-46-41z m-384-329c-8 0-20 4-29 12l-100 92c-16 16-16 41 0 58 17 17 42 17 59 0l70-67 155 146c16 17 41 17 58 0 17-16 17-41 0-58l-183-171c-9-8-21-12-30-12z" horiz-adv-x="1000" />

<glyph glyph-name="warning-regular" unicode="&#xe828;" d="M500 223c-40 0-67 27-67 67v147c0 40 27 66 67 66 40 0 67-26 67-66v-147c0-33-27-67-67-67z m320-260h-640c-20 0-47 7-60 20-20 14-33 27-47 47-13 20-20 40-20 60s7 47 20 60l320 553c0 0 0 0 0 0 7 20 27 34 47 47 40 20 87 20 127 0 13-13 33-27 40-47l320-553c13-20 20-40 20-60 0-20-7-47-14-60-13-20-26-33-46-47-20-13-47-20-67-20z m-633 120l0 0 0 0 0 0z m6 14h614l-307 526-307-526z m307 20c27 0 47 20 47 46 0 27-20 47-47 47s-47-27-47-47c0-26 20-46 47-46z" horiz-adv-x="1000" />

<glyph glyph-name="playcircle" unicode="&#xe829;" d="M500 756c-80 0-159-24-226-68-66-45-119-108-149-182-31-75-39-156-23-235 15-79 54-151 111-208 57-57 129-96 208-111 79-16 160-8 235 23 74 30 137 83 182 149 44 67 68 146 68 226 0 108-43 211-119 287-76 76-179 119-287 119z m142-432l-187-125c-5-3-10-5-16-5-6 0-11 1-16 3-5 3-9 7-12 12-3 5-5 10-5 16v250c0 6 2 11 5 16 3 5 7 9 12 12 5 2 10 4 16 3 6 0 11-2 16-5l187-125c5-3 8-7 11-11 2-5 3-10 3-15 0-5-1-10-3-15-3-4-6-8-11-11z" horiz-adv-x="1000" />

<glyph glyph-name="screen-full" unicode="&#xe838;" d="M167 433c-25 0-42 17-42 42v125c0 71 54 125 125 125h125c25 0 42-17 42-42s-17-41-42-41h-125c-25 0-42-17-42-42v-125c0-25-16-42-41-42z m708-333v125c0 25-17 42-42 42s-41-17-41-42v-125c0-25-17-42-42-42h-125c-25 0-42-16-42-41s17-42 42-42h125c71 0 125 54 125 125z m0 375v125c0 71-54 125-125 125h-125c-25 0-42-17-42-42s17-41 42-41h125c25 0 42-17 42-42v-125c0-25 16-42 41-42s42 17 42 42z m-458-458c0 25-17 41-42 41h-125c-25 0-42 17-42 42v125c0 25-16 42-41 42s-42-17-42-42v-125c0-71 54-125 125-125h125c25 0 42 17 42 42z" horiz-adv-x="1000" />

<glyph glyph-name="close-circle-outline" unicode="&#xe83c;" d="M500 767a417 417 0 1 1 417-417 417 417 0 0 1-417 417z m0-750a333 333 0 1 0 333 333 333 333 0 0 0-333-333z m113 446a42 42 0 0 1-59 0l-54-54-54 54a42 42 0 0 1-59-59l54-54-54-54a42 42 0 0 1 0-59 42 42 0 0 1 59 0l54 54 54-54a42 42 0 0 1 59 0 42 42 0 0 1 0 59l-54 54 54 54a42 42 0 0 1 0 59z" horiz-adv-x="1000" />

<glyph glyph-name="bookmark-outline" unicode="&#xe845;" d="M171 753v-806c0-13 3-27 9-39 5-12 12-22 21-31 19-17 42-26 67-26 21 0 41 7 58 20l174 132 174-132c17-13 37-20 58-20 25 0 49 9 67 26 9 9 16 19 21 31 6 12 9 26 9 39v806c0 53-44 96-97 96h-464c-53 0-97-43-97-96z m587 0v-806c0-15-13-25-26-25-5 0-10 1-15 5l-202 154c-4 3-10 5-15 5-5 0-11-2-15-5l-202-154c-5-4-10-5-15-5-13 0-26 10-26 25v806c0 14 12 25 26 25h464c14 0 26-11 26-25z m-490-903c-25 0-49 9-67 27-9 9-17 19-22 31-6 12-8 25-8 39v806c0 53 43 97 97 97h464c54 0 97-44 97-97v-806c0-14-2-27-8-39-5-12-12-22-22-31-18-18-42-27-67-27-21 0-42 7-59 20l-173 132-173-132c-17-13-38-20-59-20z m0 998c-53 0-96-42-96-95v-806c0-13 3-26 8-38 6-12 13-22 22-31 18-17 41-26 66-26 21 0 41 6 58 19l174 133 1 0 173-133c17-13 37-19 58-19 25 0 48 9 66 26 9 9 17 19 22 31 5 12 8 25 8 38v806c0 53-43 95-96 95h-464z m464-927c-6 0-11 2-16 5l-201 154c-4 4-10 5-15 5s-11-1-15-5l-201-154c-5-3-10-5-16-5-13 0-26 10-26 26v806c0 14 11 26 26 26h464c15 0 26-12 26-26v-806c0-16-13-26-26-26z m-232 166c6 0 11-2 16-5l201-154c5-4 10-5 15-5 12 0 25 9 25 24v806c0 13-11 24-25 24h-464c-14 0-25-11-25-24v-806c0-15 13-24 25-24 5 0 10 1 15 5l201 154c5 3 10 5 16 5z" horiz-adv-x="1000" />

<glyph glyph-name="long-arrow" unicode="&#xe848;" d="M906-119l-62 6c6 119 81 326 275 438h-1119v63h1119c-200 106-269 318-275 437l62 6c13-131 107-393 413-437l-6-44 6-31c-306-44-400-306-413-438z" horiz-adv-x="1375" />

<glyph glyph-name="shopping-cart-outline" unicode="&#xe849;" d="M879 558c-16 25-41 42-71 42h-533l-25 96c-4 17-21 29-42 29h-83c-25 0-42-17-42-42s17-41 42-41h50l117-429c4-17 21-30 41-30h375c17 0 30 9 38 25l137 275c13 21 9 50-4 75z m-196-291h-316l-71 250h512l-125-250z m-370-167c33 0 62-29 62-62s-29-63-62-63-63 29-63 63 29 62 63 62z m416 0c34 0 63-29 63-62s-29-63-63-63-62 29-62 63 29 62 62 62z" horiz-adv-x="1000" />

<glyph glyph-name="search-outline" unicode="&#xe84a;" d="M863 46l-142 142a330 330 0 0 1 71 204 333 333 0 1 1-334-334 330 330 0 0 1 205 71l141-142a42 42 0 0 1 59 0 42 42 0 0 1 0 59z m-655 346a250 250 0 1 0 250-250 250 250 0 0 0-250 250z" horiz-adv-x="1000" />

<glyph glyph-name="clockclockwise" unicode="&#xe84c;" d="M500 308c-25 0-42 17-42 42v188c0 25 17 41 42 41s42-16 42-41v-188c0-25-17-42-42-42z m163-91c-9 0-13 0-21 4l-163 92c-21 12-25 37-16 58 12 21 37 25 58 17l162-92c21-13 25-38 17-58-8-17-25-21-37-21z m212 204h-158c-25 0-42 17-42 42s17 41 42 41h116v113c0 25 17 41 42 41s42-16 42-41v-159c0-20-17-37-42-37z m-375-459c-50 0-100 9-146 30-71 29-129 79-175 141-41 63-66 138-66 213 0 75 20 150 66 212 42 63 104 113 175 142 71 29 146 38 221 21 75-17 142-50 196-104l133-134c17-16 17-41 0-58s-41-17-58 0l-133 133c-42 42-96 71-155 84-58 16-116 8-175-13-54-25-100-62-133-112s-50-109-50-167 17-117 50-167c33-50 79-87 138-112 54-21 116-29 175-17 58 13 112 42 154 84 16 16 41 16 58 0s17-42 0-59c-54-54-121-92-196-104-29-8-54-13-79-13z" horiz-adv-x="1000" />

<glyph glyph-name="translate" unicode="&#xe84d;" d="M872-22c-16 0-28 8-36 24l-176 348-176-348c-8-20-32-28-52-16-20 8-28 32-16 52l208 420c12 28 56 28 72 0l208-420c8-20 0-44-16-52-4-4-12-8-16-8z m-64 120h-300c-24 0-40 16-40 40s16 40 40 40h300c24 0 40-16 40-40s-16-40-40-40z m-480 480c-24 0-40 16-40 40v92c0 24 16 40 40 40s40-16 40-40v-88c0-24-16-44-40-44z m240 0h-480c-24 0-40 16-40 40s16 40 40 40h480c24 0 40-16 40-40s-16-40-40-40z m-480-360c-24 0-40 16-40 40s16 40 40 40c84 0 164 32 228 92 60 60 92 140 92 228 0 24 16 40 40 40s40-16 40-40c0-108-40-208-116-284-76-72-176-116-284-116z m480 4c-84 0-164 24-232 72-68 48-120 116-148 192-4 20 8 44 28 52 20 8 44-4 52-24 24-64 64-116 116-156 56-40 120-60 184-60 24 0 40-16 40-40s-16-36-40-36z" horiz-adv-x="960" />

<glyph glyph-name="maptrifold" unicode="&#xe84e;" d="M125 25c-8 0-17 4-25 8-12 13-17 21-17 34v566c0 21 13 38 34 42l250 63c21 4 41-13 50-34 4-21-9-46-34-50l-216-54v-475l200 50c21 4 46-8 50-29 4-21-9-46-29-50l-250-63c-5-4-9-8-13-8z m500-58c-8 0-12 0-17 4l-250 125c-16 4-25 21-25 37v559c0 12 9 29 21 37 13 9 29 9 42 0l250-125c12-4 21-21 21-37v-563c0-12-9-29-21-37-4 0-13 0-21 0z m-208 191l166-83v467l-166 83v-467z m208-191c-17 0-37 12-42 33-4 21 9 46 30 50l220 50v479l-200-50c-20-8-41 9-50 29-4 21 9 46 30 50l250 63c12 4 25 0 37-8s17-17 17-30v-562c0-21-13-38-34-42l-250-62c0 0-4 0-8 0z" horiz-adv-x="1000" />

<glyph glyph-name="laptop" unicode="&#xe84f;" d="M842 133c-17 0-34 13-34 34v400c0 8-4 16-8 21-4 8-12 12-17 12h-566c-9 0-13-4-21-8s-8-13-8-25v-409c0-16-13-33-34-33s-29 21-29 38v404c0 25 8 50 29 66 17 17 42 30 67 30h562c25 0 50-9 67-30 17-16 29-41 29-66v-409c-4-12-16-25-37-25z m0-125h-684c-25 0-50 9-66 30-17 16-29 41-29 66v63c0 16 12 33 33 33h812c17 0 34-12 34-33v-67c0-25-9-50-29-67s-46-25-71-25z m-717 125v-33c0-8 4-17 8-21 5-4 13-8 21-8h688c8 0 16 4 21 8s12 13 12 21v33h-750z m438 342h-125c-17 0-34 13-34 33s13 34 34 34h125c16 0 33-13 33-34s-17-33-33-33z" horiz-adv-x="1000" />

<glyph glyph-name="office-push-pin" unicode="&#xe850;" d="M988 564l-279 278c-10 11-26 11-36 0l-1-1c-18-17-27-40-27-64 0-15 4-30 11-43l-291-251c-23 20-51 31-81 31-33 0-64-13-87-36l-1-1c-10-10-10-27 0-37l167-167-163-163c-3-3-80-82-131-146-48-60-58-71-58-71-9-10-9-26 1-35 5-6 12-8 18-8 6 0 12 2 17 6 1 1 12 10 72 59 63 50 143 127 146 131l163 162 158-158c5-5 11-7 18-7s13 2 18 7l2 2c23 23 36 53 36 86 0 30-11 59-31 81l250 292c13-8 28-12 44-12 24 0 47 10 64 27l1 1c10 10 10 27 0 37z" horiz-adv-x="1000" />

<glyph glyph-name="link" unicode="&#xe851;" d="M931 781c-91 92-240 92-331 0l-196-195c-95-95-86-246 0-332 14-14 30-26 47-36l36 36c23 24 15 51 15 71-5 3-10 7-15 12-44 44-46 120 0 166 7 6 192 191 196 196 46 45 120 45 166 0 45-46 45-120 0-166l-130-130c4-20 26-69 15-150 0 0 1 0 2 1l195 196c92 91 92 240 0 331z m-320-320c-14 15-30 26-47 36l-36-36c-23-23-15-51-14-70 5-4 10-8 14-13 44-44 46-119 0-165-7-7-207-207-211-211-45-46-120-46-165 0-46 45-46 120 0 165l144 145c-4 21-26 70-14 151-1-1-2-1-2-2l-211-211c-92-91-92-240 0-331 91-92 240-92 331 0l211 211c93 93 88 243 0 331z" horiz-adv-x="1000" />

<glyph glyph-name="quotation-marks" unicode="&#xe852;" d="M206 430c12 77 108 159 183 161 5 0 10 2 14 5 3 2 7 4 9 9 26 49 12 87-32 118-50 37-130 0-170-33-102-84-204-228-199-366-18-92-14-192 12-274 17-52 68-78 120-82 53-3 161-19 208 13 47 31 50 92 55 144 6 58 21 166-27 211-49 44-189-3-173 94z m575 0c12 77 108 159 183 161 5 0 11 2 14 5 4 2 7 4 9 9 26 49 12 87-31 118-51 37-131 0-171-33-101-84-204-228-199-366-17-92-14-192 12-274 18-52 68-78 120-82 53-3 161-19 208 13 47 31 50 92 56 144 5 58 21 166-28 211-49 44-190-3-173 94z" horiz-adv-x="1000" />

<glyph glyph-name="cube" unicode="&#xe853;" d="M500-100c-12 0-21 4-29 8l-346 196c-8 4-17 13-25 21s-8 21-8 33v384c0 12 4 21 8 33 8 8 17 17 25 21l346 192c17 12 42 12 62 0l342-192c8-4 17-13 25-25 4-8 8-21 8-33v-384c0-12-4-21-8-33-4-8-12-17-25-21l-346-192c-8-4-16-8-29-8z m0 838l-342-196v-384l342-191 342 191v384l-342 196z m4-421c-4 0-12 0-16 4l-375 208c-13 13-21 29-13 46 8 17 29 21 42 13l358-200 350 200c17 8 33 4 42-13 8-17 4-33-13-42l-366-208c0-4-5-8-9-8z m-4-417c0 0 0 0 0 0-17 0-33 12-33 33l4 417c0 17 12 33 33 29 17 0 29-12 29-33l-4-417c0-12-12-29-29-29z" horiz-adv-x="1000" />

<glyph glyph-name="paperclip" unicode="&#xe854;" d="M344-56c-60 0-113 22-153 65-44 41-66 94-66 154 0 59 22 112 66 156l387 390c16 16 31 25 50 35 38 15 81 15 119 0 19-10 37-19 50-35 16-15 25-31 34-50 10-18 13-37 13-59s-3-41-13-59c-9-19-18-38-34-50l-388-394c-34-34-96-34-131 0-19 16-28 41-28 66 0 25 9 50 28 65l325 331c13 13 31 13 44 0 12-12 12-31 0-43l-325-332c-6-6-9-12-9-21 0-10 3-16 9-22 12-13 31-13 44 0l387 393c10 10 16 19 22 32 3 9 6 22 6 34s-3 25-6 34-12 22-22 32c-9 9-19 15-31 18-22 10-50 10-72 0-12-6-22-12-31-18l-385-394c-31-28-46-69-46-109 0-41 15-82 46-110 29-31 69-47 110-47s81 16 109 47l322 319c13 12 31 12 44 0 12-13 12-31 0-44l-322-322c-41-40-94-62-153-62z" horiz-adv-x="1000" />

<glyph glyph-name="arrows-clockwise" unicode="&#xe855;" d="M772 122a31 31 0 0 0 0-44c-4-4-105-103-272-103-146 0-252 88-312 156v-93a31 31 0 0 0-63 0v187a31 31 0 0 0 31 31h188a31 31 0 0 0 0-62h-127c48-60 146-156 283-156 141 0 227 83 228 84a31 31 0 0 0 44 0z m72 572a31 31 0 0 1-31-31v-94c-61 69-167 156-313 156-167 0-268-99-272-103a31 31 0 0 1 44-44c1 1 87 85 228 85 137 0 235-97 283-157h-127a31 31 0 0 1 0-62h188a31 31 0 0 1 31 31v188a31 31 0 0 1-31 31z" horiz-adv-x="1000" />

<glyph glyph-name="xcircle" unicode="&#xe856;" d="M500 756c-80 0-159-24-226-68-66-45-119-108-149-182-31-75-39-156-23-235 15-79 54-151 111-208 57-57 129-96 208-111 79-16 160-8 235 23 74 30 137 83 182 149 44 67 68 146 68 226 0 108-43 211-119 287-76 76-179 119-287 119z m147-509c3-3 5-6 7-10 2-4 2-8 2-12 0-4 0-8-2-12-2-4-4-7-7-10-3-3-6-5-10-7-4-1-8-2-12-2-4 0-8 1-12 2-4 2-7 4-10 7l-103 103-103-103c-6-6-14-9-22-9-8 0-16 3-22 9-6 6-9 14-9 22 0 8 3 16 9 22l103 103-103 103c-6 6-9 14-9 22 0 8 3 16 9 22 6 6 14 9 22 9 8 0 16-3 22-9l103-103 103 103c6 6 14 9 22 9 8 0 16-3 22-9 6-6 9-14 9-22 0-8-3-16-9-22l-103-103 103-103z" horiz-adv-x="1000" />

<glyph glyph-name="paperplanetilt" unicode="&#xe863;" d="M919 706c-6 13-13 32-25 44-13 13-25 19-44 25-6 0-12 6-25 6-6 0-19 0-25-6l-725-212c-19-7-31-13-44-25-12-19-18-38-25-57 0-18 0-37 13-56 12-12 25-25 44-37l325-157 150-319c6-18 18-31 37-43 13-7 31-13 50-13 0 0 6 0 6 0 19 0 38 6 50 19 13 12 25 31 32 50l206 731c6 13 6 32 0 50z m-300-668l-113 231 150 144c25 25 25 62 0 87-25 25-62 25-87 0l-150-144-231 113 593 169-162-600z" horiz-adv-x="1000" />

<glyph glyph-name="flag" unicode="&#xe86e;" d="M858 691c-5 2-11 3-17 3-6-1-11-3-16-6-110-83-204-43-313 3-110 48-235 101-374-3-1 0-1-1-1-1 0 0-1 0-1-1-1 0-1-1-1-1-1 0-1-1-1-1-1 0-1-1-2-1 0 0 0-1 0-1-1-1-1-1-1-2-1 0-1 0-1-1 0 0-1-1-1-1 0 0 0-1-1-1 0-1 0-1 0-2 0 0-1-1-1-1 0-1 0-1 0-2-1 0-1-1-1-1 0-1 0-1 0-1 0-1 0-2 0-2-1-1-1-1-1-2 0 0 0 0 0-1 0-1 0-1 0-2 0 0 0 0 0 0v-657c0-8 3-16 9-22 6-6 14-9 22-9 9 0 17 3 22 9 6 6 10 14 10 22v172c105 71 195 32 300-13 63-27 132-56 205-56 54 0 110 16 170 60 3 3 7 7 9 11 2 4 3 9 3 14v469c0 5-2 11-5 16-3 5-7 9-12 12z" horiz-adv-x="1000" />

<glyph glyph-name="circle-right" unicode="&#xe877;" d="M500 758c-79 0-158-25-225-66-67-50-121-113-150-188-29-75-37-154-25-233 17-79 54-150 113-208 58-59 129-96 208-113 79-17 162-8 233 25 75 29 138 83 184 150 45 67 66 146 66 225 0 108-41 213-121 288-70 75-175 116-283 120l0 0z m129-433l-158-142c-4-4-8-4-13-4-4 0-8 0-12 0-4 0-8 0-13 4-4 0-8 5-8 9-4 4-4 8-4 12 0 4 0 9 0 13 0 4 0 8 4 12 0 4 4 9 8 9l130 116-130 117c-4 4-8 12-8 21 0 8 4 16 8 21 5 4 13 8 21 8 9 0 17-4 21-8l158-142c5-4 5-8 9-13 0-4 4-8 4-12s0-8-4-13c-4 0-9-4-13-8z" horiz-adv-x="1000" />

<glyph glyph-name="save-arrow" unicode="&#xe878;" d="M20 340c-20-15-25-50-10-70l265-365c15-20 50-25 70-10 20 15 25 50 10 70l-235 320 320 235c20 15 25 50 10 70-15 20-50 25-70 10l-360-260z m2495 495c-295-305-580-475-955-545-375-70-840-40-1500 60l-15-100c660-100 1145-135 1535-60 395 75 700 255 1005 575l-70 70z" horiz-adv-x="2600" />

<glyph glyph-name="article" unicode="&#xe879;" d="M842 8h-684c-33 0-62 30-62 63v562c0 34 29 63 62 63h688c33 0 62-29 62-63v-562c0-38-29-63-66-63z m-684 625v-562h688v562h-688z m575-158c0 17-12 33-33 33h-404c-17 0-29-16-29-33s12-33 33-33h408c13 0 25 16 25 33z m0-125c0 17-12 33-33 33h-404c-17 0-33-12-33-33s12-33 33-33h408c17 0 29 16 29 33z m0-125c0 17-12 33-33 33h-404c-17 0-33-12-33-33s12-33 33-33h408c17 0 29 16 29 33z" horiz-adv-x="1000" />

<glyph glyph-name="files" unicode="&#xe87a;" d="M658-58h-441c-17 0-34 8-46 16-13 13-17 29-17 46v563c0 16 9 33 17 46s29 16 46 16h312c9 0 17-4 21-8l158-154c5-4 9-13 9-21v-438c0-16-9-33-17-46s-25-20-42-20z m-441 625v-563h437v425l-137 138h-300z m608-479c13 12 17 29 17 45v434c0 8-4 16-9 21l-158 158c-4 4-12 8-21 8h-312c-17 0-34-8-46-16s-13-30-13-46v-92c0-17 13-33 34-33s25 16 25 33v92h300l137-138v-425h-91c-17 0-34-12-34-33s13-33 34-33h91c21 4 34 12 46 25z m-262 170c0 17-13 34-34 34h-187c-17 0-34-13-34-34s17-33 34-33h187c21 0 34 13 34 33z m0-125c0 17-13 34-34 34h-187c-17 0-34-13-34-34s17-33 34-33h187c21 0 34 13 34 33z" horiz-adv-x="1000" />

<glyph glyph-name="squaresfour" unicode="&#xe87b;" d="M438 383h-250c-17 0-34 13-34 34v250c0 16 13 33 34 33h250c16 0 33-12 33-33v-250c-4-21-17-34-33-34z m-221 59h187v191h-187v-191z m596-59h-250c-17 0-34 13-34 34v250c0 16 13 33 34 33h250c16 0 33-12 33-33v-250c-4-21-17-34-33-34z m-221 59h187v191h-187v-191z m-154-434h-250c-17 0-34 13-34 34v250c0 16 13 33 34 33h250c16 0 33-12 33-33v-250c-4-21-17-34-33-34z m-221 59h187v187h-187v-187z m596-59h-250c-17 0-34 13-34 34v250c0 16 13 33 34 33h250c16 0 33-12 33-33v-250c-4-21-17-34-33-34z m-221 59h187v187h-187v-187z" horiz-adv-x="1000" />

<glyph glyph-name="clipboardtext" unicode="&#xe87c;" d="M625 225h-250c-17 0-33 13-33 33s12 34 33 34h250c17 0 33-13 33-34s-16-33-33-33z m33 158c0 17-12 34-33 34h-250c-17 0-33-13-33-34s16-33 33-33h250c17 0 33 13 33 33z m167-421c13 13 17 30 17 46v655c0 16-9 33-17 45-12 9-25 17-42 17h-158c-17 0-33-12-33-33s12-34 33-34h158v-658h-566v663h158c17 0 33 12 33 33s-16 29-33 29h-158c-13 0-29-8-42-17s-17-29-17-45v-659c0-17 9-33 17-46 13-12 29-16 46-16h562c17 0 30 8 42 20z m-137 605v33c0 50-21 96-55 133-33 38-83 55-133 55-50 0-96-21-133-55-34-37-54-83-54-133v-33c0-17 12-34 33-34h312c17 5 30 17 30 34z m-275 121c45 45 129 45 175 0 25-21 37-55 37-88h-250c0 33 13 67 38 88z" horiz-adv-x="1000" />

<glyph glyph-name="identificationcard" unicode="&#xe87f;" d="M750 383h-158c-17 0-34 13-34 34s13 33 34 33h158c17 0 33-12 33-33s-16-34-33-34z m33-95c0 16-12 33-33 33h-158c-17 0-34-13-34-33s13-34 34-34h158c17 4 33 17 33 34z m-300 95c0 71-54 125-125 125s-125-54-125-125 55-125 125-125 125 55 125 125z m-62 0c0-33-29-62-63-62s-62 29-62 62 29 63 62 63 63-29 63-63z m-150-195c4 20 17 37 33 50 34 25 84 25 117 0 17-13 29-30 33-50 4-17 21-25 38-21 16 4 25 21 21 37-9 34-30 63-55 84-54 41-137 41-191 0-29-21-46-50-54-84-5-16 4-33 20-37 5 0 5 0 9 0 12-4 25 4 29 21z m637-121v566c0 34-29 63-62 63h-688c-33 0-62-29-62-63v-562c0-33 29-63 62-63h688c33 0 62 25 62 59z m-66 566v-562h-684v562h684z" horiz-adv-x="1000" />

<glyph glyph-name="gear" unicode="&#xe881;" d="M500 133c-121 0-217 100-217 217 0 121 100 217 217 217 121 0 217-100 217-217 0-121-96-217-217-217z m0 375c-87 0-158-70-158-158 0-87 71-158 158-158 88 0 158 71 158 158 0 88-70 158-158 158z m-108-583c-4 0-4 0-9 0-37 8-70 25-104 42-8 4-12 12-16 20l-13 96c0 9-8 17-12 21l-96 13c-9 0-17 8-21 16-17 34-33 67-42 105-4 8 0 20 4 25l59 79c0 4 0 12 0 21l-59 75c-8 8-8 16-4 25 9 37 25 70 42 104 4 8 12 16 21 16l96 13c4 4 12 12 16 17l13 95c0 9 8 17 16 21 34 17 67 34 105 42 8 4 20 0 25-4l79-59c8 0 12 0 21 0l75 59c8 4 16 8 25 4 37-8 70-25 104-42 8-4 12-12 16-21l13-95c4-5 12-13 17-17l95-13c9 0 17-8 21-16 17-34 34-67 42-104 4-9 0-21-4-25l-59-80c0-4 0-12 0-20l59-80c4-8 8-16 4-25-8-37-25-70-42-104-4-8-12-12-21-16l-95-13c-5-4-9-8-13-12l-12-96c0-9-9-17-17-21-33-17-67-34-104-42-9-4-21 0-25 4l-79 59c-9 0-13 0-21 0l-79-59c-5-4-13-8-21-8z m-67 92c21-9 42-17 63-25l75 54c4 4 12 8 20 4 13 0 25 0 38 0 8 0 17 0 21-4l75-54c21 8 41 16 62 25l13 91c0 9 4 13 8 21 8 9 25 25 25 25 4 4 13 9 17 9l91 12c9 21 17 42 25 63l-54 75c-4 4-8 12-4 20 0 13 0 38 0 38 0 8 0 12 8 21l55 75c-9 21-17 41-25 62l-92 13c-8 0-13 4-21 8-8 8-17 17-25 25-4 4-8 13-8 21l-17 87c-21 9-42 17-62 25l-75-54c-5-4-13-8-21-4-13 0-25 0-38 0-8 0-16 0-21 4l-70 54c-21-8-42-16-63-25l-12-91c0-9-5-13-9-21-8-8-16-17-25-25-8-4-12-8-21-8l-91-13c-9-21-17-42-25-62l54-75c4-5 8-13 4-21 0-13 0-38 0-38 0-8 0-12-4-21l-54-75c8-20 16-41 25-62l91-13c9 0 13-4 21-8 9-8 17-17 25-25 4-4 9-12 9-21l12-87z" horiz-adv-x="1000" />

<glyph glyph-name="play" unicode="&#xe882;" d="M313-56c-10 0-22 3-32 9-9 6-18 13-22 22-6 9-9 19-9 31v688c0 12 3 22 9 31 7 9 13 19 22 22 10 6 22 9 32 9 12 0 21-3 31-9l562-344c10-6 16-12 22-22 6-9 10-18 10-31s-4-22-10-31c-6-10-12-16-22-22l-562-344c-10-6-19-9-31-9 0 0 0 0 0 0z m0 750v-688l562 344 16 28-16-28-562 344z" horiz-adv-x="1000" />

<glyph glyph-name="harddrives" unicode="&#xe883;" d="M813 8h-625c-34 0-63 30-63 63v187c0 34 29 63 63 63h625c33 0 62-29 62-63v-187c0-38-29-63-62-63z m-625 250v-187h625v187h-625z m625 125h-625c-34 0-63 25-63 59v191c0 34 29 63 63 63h625c33 0 62-29 62-63v-187c0-38-29-63-62-63z m-625 250v-187h625v187h-625z m516-133c21 0 38 17 38 38s-17 37-38 37-41-17-41-37 20-38 41-38z m0-375c21 0 38 17 38 38 0 20-17 37-38 37s-37-17-37-37c-4-21 16-38 37-38z" horiz-adv-x="1000" />

<glyph glyph-name="archive" unicode="&#xe884;" d="M875 442h-750c-33 0-62 29-62 62v96c0 33 29 63 62 63h750c33 0 63-30 63-63v-92c0-37-30-66-63-66z m-750 158v-92h750v92h-750z m733-546c13 13 17 29 17 46v375c0 17-12 33-33 33s-29-16-29-33v-375h-625v375c0 17-13 33-34 33s-29-16-29-33v-375c0-17 8-33 17-46 12-12 29-16 46-16h625c16 0 33 8 45 16z m-233 263c0 16-12 33-33 33h-184c-20 0-33-12-33-33s13-34 33-34h188c17 5 29 17 29 34z" horiz-adv-x="1000" />

<glyph glyph-name="signout" unicode="&#xe887;" d="M679 154c-8 0-16 4-21 9-12 12-12 33 0 45l142 142-142 142c-12 12-12 33 0 46s34 12 46 0l163-163c12-12 12-33 0-46l-163-162c-8-9-16-13-25-13z m196 196c0 17-12 33-33 33h-434c-20 0-33-16-33-33s13-33 33-33h438c17 0 29 16 29 33z m-437-342c0 17-13 34-34 34h-216v625h216c17 0 34 12 34 33s-13 25-30 25h-220c-17 0-34-8-46-17s-17-29-17-45v-625c0-17 8-34 17-46 12-9 29-17 46-17h216c21 0 34 12 34 33z" horiz-adv-x="1000" />

<glyph glyph-name="listdashes" unicode="&#xe888;" d="M842 558h-467c-25 0-42 17-42 42s17 42 42 42h467c25 0 41-17 41-42s-16-42-41-42z m0-250h-467c-25 0-42 17-42 42s17 42 42 42h467c25 0 41-17 41-42s-16-42-41-42z m0-250h-467c-25 0-42 17-42 42s17 42 42 42h467c25 0 41-17 41-42s-16-42-41-42z m-625 500h-59c-25 0-41 17-41 42s16 42 41 42h63c25 0 42-17 42-42s-21-42-46-42z m0-250h-59c-25 0-41 17-41 42s16 42 41 42h63c25 0 42-17 42-42s-21-42-46-42z m0-250h-59c-25 0-41 17-41 42s16 42 41 42h63c25 0 42-17 42-42s-21-42-46-42z" horiz-adv-x="1000" />

<glyph glyph-name="smiley" unicode="&#xe889;" d="M500-58c-225 0-408 183-408 408s183 408 408 408 408-183 408-408-183-408-408-408z m0 750c-187 0-342-154-342-342s155-342 342-342 342 155 342 342-154 342-342 342z m-142-304c21 0 38 16 38 37 0 21-17 38-38 38s-37-17-37-38c0-17 17-37 37-37z m284 0c21 0 37 16 37 37 0 21-16 38-37 38s-38-17-38-38c-4-17 17-37 38-37z m-34-225c34 20 63 45 80 79 8 16 4 33-13 41-17 9-33 5-42-12-12-25-33-42-58-58-46-30-108-30-158 0-25 12-42 33-59 58-8 17-29 21-41 12-17-8-21-29-13-41 21-34 46-63 79-79 34-21 71-30 109-30 46 0 83 9 116 30z" horiz-adv-x="1000" />

<glyph glyph-name="envelope" unicode="&#xe88a;" d="M476 269c-5 0-9 0-14 5l-357 328c-10 5-14 24-5 34 10 9 24 9 33 0l343-315 343 315c10 9 24 9 33 0 10-10 10-24 0-34l-357-328c-9-5-14-5-19-5z m367-195c9 9 14 24 14 38v505c0 14-9 24-24 24h-714c-14 0-24-10-24-24v-505c0-14 5-29 15-38 9-10 23-14 38-14h657c14 0 28 4 38 14z m-33 519v-481l-5-5h-657l-5 5v481h667z m-667-519l286 257c9 10 9 24 0 33-10 10-24 10-34 0l-281-257c-9-9-9-24 0-33 5-5 10-10 19-10 0 5 5 5 10 10z m700 0c9 9 9 24 0 33l-281 257c-10 10-24 10-33 0-10-9-10-23 0-33l281-257c4-5 9-5 14-5 5 0 14 0 19 5z" horiz-adv-x="952" />

<glyph glyph-name="bellsimpleringing" unicode="&#xe88b;" d="M625-67h-250c-25 0-42 17-42 42s17 42 42 42h250c25 0 42-17 42-42s-17-42-42-42z m221 134c12 8 21 16 25 25 8 12 8 25 8 37 0 13-4 25-8 38-21 37-50 112-50 246 0 41-8 83-25 125-17 37-42 75-71 104-29 29-67 54-104 71-79 33-167 33-246 0-37-17-75-42-104-71-29-29-54-67-67-104-16-38-25-80-25-125 0-134-25-205-50-246-8-13-8-25-8-38 0-12 4-25 8-37s17-21 25-25c13-4 25-9 38-9h616c13 0 25 5 38 9z m-646 58c0 0 0 0 0 0 0 0 0 0 0 0z m63 288c0 0 0 0 0 0 0 33 4 62 16 91 13 29 29 54 50 79 21 21 50 42 79 50 59 25 125 25 184 0 29-12 54-29 79-50s42-50 50-79c12-29 17-58 17-91 0-134 25-221 54-271h-584c25 50 55 137 55 271z m620 141c21 9 30 34 21 54-37 75-91 138-162 184-21 12-46 8-59-13-12-21-8-46 13-58 54-38 100-88 133-146 4-17 21-25 38-25 4 0 12 0 16 4z m-712 21c33 58 79 108 133 146 21 12 25 37 13 58s-38 25-54 13c-71-46-130-109-163-184-8-20 0-45 21-54 4-4 12-4 17-4 12 0 29 8 33 25z" horiz-adv-x="1000" />

<glyph glyph-name="plus" unicode="&#xe88c;" d="M476-12c-19 0-38 14-38 38v291h-290c-19 0-38 14-38 38s14 38 38 38h290v286c0 19 14 38 38 38s38-15 38-38v-291h291c19 0 38-14 38-38s-14-38-38-38h-291v-291c0-19-19-33-38-33z" horiz-adv-x="952" />

<glyph glyph-name="eye" unicode="&#xe88d;" d="M500 38c-329 0-462 287-467 300-4 8-4 16 0 25 5 12 138 300 467 300s463-288 467-300c4-9 4-17 0-25-4-13-138-300-467-300z m-404 312c29-54 150-250 404-250 250 0 375 196 404 250-29 54-150 250-404 250-254 0-375-196-404-250z m404-187c-104 0-187 83-187 187s83 188 187 188 188-84 188-188-84-187-188-187z m0 312c-71 0-125-54-125-125s54-125 125-125 125 54 125 125-54 125-125 125z" horiz-adv-x="1000" />

<glyph glyph-name="entypo_check" unicode="&#xe8f5;" d="M381-50c-31 0-60 12-78 32l-250 269c-8 9-13 18-16 28-4 11-4 21-3 31 2 11 6 21 13 30 6 9 15 17 25 23 10 6 22 11 34 14 13 2 26 3 38 1 13-1 25-5 36-10 11-5 21-12 29-20l164-178 413 543c14 17 36 30 61 35 25 5 52 1 74-10 45-23 59-72 31-110l-488-640c-9-11-20-21-34-27-14-7-29-10-45-11-1 0-3 0-4 0z" horiz-adv-x="1000" />

<glyph glyph-name="arrow-right2" unicode="&#xea3c;" d="M607-7l312 313c25 24 25 64 0 88l-312 313c-25 24-64 24-89 0-24-25-24-64 0-89l206-205h-599c-34 0-62-28-62-63s28-62 62-62h599l-206-206c-12-12-18-28-18-44s6-32 18-45c25-24 64-24 89 0z" horiz-adv-x="1000" />

<glyph glyph-name="arrow-left2" unicode="&#xea40;" d="M393-7l-312 313c-25 24-25 64 0 88l312 313c25 24 64 24 89 0 24-25 24-64 0-89l-206-205h599c35 0 63-28 63-63s-28-62-63-62h-599l206-206c12-12 18-28 18-44s-6-32-18-45c-25-24-64-24-89 0z" horiz-adv-x="1000" />

<glyph glyph-name="warning-light" unicode="&#xf216;" d="M477 288v156a23 23 0 0 0 46 0v-156a23 23 0 0 0-46 0z m441-262a84 84 0 0 0-74-43h-688a86 86 0 0 0-74 129l344 594a86 86 0 0 0 148 0l344-594a85 85 0 0 0 0-86z m-41 62l-343 594a40 40 0 0 1-68 0l-343-594a39 39 0 0 1 33-58h688a39 39 0 0 1 33 58z m-377 98a39 39 0 1 1 39-39 39 39 0 0 1-39 39z" horiz-adv-x="1000" />

<glyph glyph-name="check" unicode="&#xf33e;" d="M406 100a33 33 0 0 0-22 9l-219 219a32 32 0 0 0 45 44l196-197 416 416a32 32 0 0 0 44-44l-437-438a33 33 0 0 0-23-9z" horiz-adv-x="1000" />

<glyph glyph-name="magnifying-glass" unicode="&#xf4a8;" d="M897-3l-169 169a360 360 0 1 1-44-44l169-169a32 32 0 0 1 44 0 32 32 0 0 1 0 44z m-741 400a297 297 0 1 0 297-297 297 297 0 0 0-297 297z" horiz-adv-x="1000" />

<glyph glyph-name="minus" unicode="&#xf4bf;" d="M844 319h-688a31 31 0 0 0 0 62h688a31 31 0 0 0 0-62z" horiz-adv-x="1000" />
</font>
</defs>
</svg>
